:FULLY-SPECIFIED
:FORCE-ALL-JOINTS-BE-3DOF
:DEGREES
714
root -12.4151 13.7211 -38.1194 153.744 -58.8472 -149.08
lfemur -63.6607 26.3352 1.55291
ltibia 74.6739 -0 0
lfoot -8.22599 -8.38704 -0.00637423
ltoes -2.39867 0 0
rfemur 10.4941 -8.41181 10.5049
rtibia 40.4404 -0 0
rfoot -25.1402 -27.1439 -0.000387878
rtoes -26.206 0 0
lowerback 11.8963 1.38528 9.24527
upperback -1.7011 3.42052 5.91247
thorax -8.37638 1.24058 0.529133
lowerneck -4.98006 5.74645 1.21834
upperneck 4.36269 7.53216 0.891695
head 2.16588 3.79678 0.294472
lclavicle 9.21243e-15 1.78906e-15 0
lhumerus 68.4614 19.2088 113.279
lradius 3.39681 -0 0
lwrist -87.0403 0 0
lhand -37.314 37.6045 0.428464
lfingers 7.12502 -0 0
lthumb -10.3694 67.6415 0.463094
rclavicle 9.21243e-15 1.78906e-15 0
rhumerus -86.4209 15.8461 -97.2217
rradius 115.268 -0 0
rwrist -69.0958 0 0
rhand -11.562 -44.9653 -0.388731
rfingers 7.12502 -0 0
rthumb 14.4992 -74.4883 -0.395973
715
root -12.4204 13.7212 -38.1269 153.798 -58.8392 -149.065
lfemur -63.7687 26.3935 1.54343
ltibia 74.778 -0 0
lfoot -8.28962 -8.39946 -0.00686537
ltoes -2.413 0 0
rfemur 10.5814 -8.39869 10.4715
rtibia 40.3188 -0 0
rfoot -25.1204 -27.1489 -0.000471745
rtoes -26.4732 0 0
lowerback 11.8594 1.38154 9.25715
upperback -1.70281 3.41231 5.91986
thorax -8.35718 1.23662 0.533075
lowerneck -4.94151 5.77254 1.27176
upperneck 4.34464 7.56684 0.837928
head 2.15543 3.81338 0.267793
lclavicle 9.21243e-15 1.78906e-15 0
lhumerus 68.5929 19.2315 113.304
lradius 3.23442 -0 0
lwrist -87.2278 0 0
lhand -37.3545 37.5795 0.43568
lfingers 7.12502 -0 0
lthumb -10.4083 67.6209 0.471146
rclavicle 9.21243e-15 1.78906e-15 0
rhumerus -86.6406 15.7726 -97.2692
rradius 115.177 -0 0
rwrist -68.9134 0 0
rhand -11.2299 -44.675 -0.370774
rfingers 7.12502 -0 0
rthumb 14.8188 -74.1687 -0.377011
716
root -12.4211 13.7227 -38.1355 153.844 -58.8435 -149.041
lfemur -63.882 26.4447 1.52267
ltibia 74.8856 -0 0
lfoot -8.35371 -8.40867 -0.0073378
ltoes -2.43383 0 0
rfemur 10.6607 -8.3945 10.4447
rtibia 40.2015 -0 0
rfoot -25.1003 -27.156 -0.00055561
rtoes -26.7404 0 0
lowerback 11.8241 1.37798 9.26727
upperback -1.70463 3.40431 5.92639
thorax -8.339 1.23283 0.536946
lowerneck -4.90074 5.79406 1.32237
upperneck 4.32492 7.5956 0.785914
head 2.14423 3.82703 0.242037
lclavicle 9.21243e-15 1.78906e-15 0
lhumerus 68.6936 19.2387 113.297
lradius 3.11434 -0 0
lwrist -87.3688 0 0
lhand -37.3754 37.5471 0.440461
lfingers 7.12502 -0 0
lthumb -10.4283 67.592 0.476575
rclavicle 9.21243e-15 1.78906e-15 0
rhumerus -86.806 15.7159 -97.3102
rradius 115.083 -0 0
rwrist -68.7145 0 0
rhand -10.8803 -44.3589 -0.350251
rfingers 7.12502 -0 0
rthumb 15.155 -73.8212 -0.355435
717
root -12.4175 13.7253 -38.1451 153.882 -58.8599 -149.01
lfemur -64.0003 26.4886 1.4908
ltibia 74.9965 -0 0
lfoot -8.41806 -8.41467 -0.00778514
ltoes -2.46103 0 0
rfemur 10.7317 -8.39919 10.4242
rtibia 40.0888 -0 0
rfoot -25.0798 -27.165 -0.000638114
rtoes -27.0068 0 0
lowerback 11.7903 1.37461 9.27562
upperback -1.70655 3.39652 5.93202
thorax -8.32189 1.22922 0.540736
lowerneck -4.85788 5.81099 1.37006
upperneck 4.3036 7.61841 0.735785
head 2.1323 3.83771 0.217267
lclavicle 9.21243e-15 1.78906e-15 0
lhumerus 68.7632 19.2305 113.259
lradius 3.03657 -0 0
lwrist -87.4632 0 0
lhand -37.3767 37.5074 0.442825
lfingers 7.12502 -0 0
lthumb -10.4295 67.555 0.479397
rclavicle 9.21243e-15 1.78906e-15 0
rhumerus -86.9172 15.676 -97.3448
rradius 114.986 -0 0
rwrist -68.4998 0 0
rhand -10.5145 -44.0182 -0.327624
rfingers 7.12502 -0 0
rthumb 15.5067 -73.4469 -0.331728
718
root -12.4099 13.729 -38.1557 153.911 -58.8884 -148.97
lfemur -64.1231 26.5253 1.44799
ltibia 75.1103 -0 0
lfoot -8.48249 -8.41747 -0.00820096
ltoes -2.4945 0 0
rfemur 10.7945 -8.41271 10.4103
rtibia 39.9811 -0 0
rfoot -25.0591 -27.1759 -0.000717907
rtoes -27.2718 0 0
lowerback 11.7582 1.37143 9.28217
upperback -1.70857 3.38898 5.93676
thorax -8.30589 1.2258 0.544435
lowerneck -4.81309 5.8233 1.4147
upperneck 4.28077 7.63525 0.687677
head 2.11969 3.84541 0.193551
lclavicle 9.21243e-15 1.78906e-15 0
lhumerus 68.8019 19.207 113.191
lradius 3.00107 -0 0
lwrist -87.5111 0 0
lhand -37.3587 37.4605 0.4428
lfingers 7.12502 -0 0
lthumb -10.412 67.51 0.479638
rclavicle 9.21243e-15 1.78906e-15 0
rhumerus -86.9743 15.6529 -97.3731
rradius 114.887 -0 0
rwrist -68.2699 0 0
rhand -10.1334 -43.6538 -0.30335
rfingers 7.12502 -0 0
rthumb 15.873 -73.0471 -0.306367
